<?xml version="1.0" encoding="UTF-8"?>
<svg version="1.1" xmlns="http://www.w3.org/2000/svg" width="256" height="256">
<path d="M0 0 C3.27661111 1.41518549 5.52917644 3.66121122 8.00276566 6.1589632 C8.55130203 6.69727772 9.09983841 7.23559223 9.6649971 7.79021931 C11.47113525 9.56860621 13.26207834 11.3614177 15.05208206 13.15603352 C16.30242544 14.3986028 17.55321513 15.64072312 18.80443192 16.88241291 C21.42200451 19.48507143 24.03170174 22.09533471 26.63655472 24.71072102 C29.97911618 28.06489284 33.34389989 31.39573987 36.71535683 34.72083378 C39.30282691 37.27887973 41.87635189 39.85060334 44.44602203 42.42651844 C45.68134574 43.66081388 46.9214176 44.89037578 48.16622925 46.11510181 C49.90245775 47.82672145 51.61860313 49.55625127 53.33089066 51.2917757 C54.10996277 52.0479166 54.10996277 52.0479166 54.90477371 52.81933308 C58.28576633 56.30285809 58.28576633 56.30285809 58.25481224 59.26406479 C56.89579265 63.05097633 54.42133462 65.43715546 51.63203812 68.22617817 C51.03628998 68.83733862 50.44054185 69.44849907 49.82674074 70.07817954 C47.82483318 72.12653281 45.80877678 74.16034222 43.79231644 76.19436359 C42.35417572 77.65920614 40.91679582 79.12479597 39.48012161 80.59107685 C34.75063274 85.40992882 29.9996589 90.20731481 25.24739456 95.00368977 C23.6081298 96.66046385 21.96897517 98.3173469 20.32992935 99.97433758 C12.61718577 107.76871236 4.89438749 115.55295943 -2.84036684 123.32549173 C-11.7370863 132.26644035 -20.59798069 141.24098989 -29.42960405 150.24623281 C-36.2744999 157.22097991 -43.15232796 164.16216183 -50.05487013 171.07985896 C-54.16778463 175.20341021 -58.26578778 179.33944581 -62.32928085 183.51175594 C-94.10830646 216.09788651 -94.10830646 216.09788651 -115.242939 219.55324078 C-118.74073569 220.1613963 -121.94911658 221.2305855 -125.31364059 222.36111164 C-130.82736801 224.06173066 -136.34627648 225.74540327 -141.86686325 227.42361164 C-144.22000996 228.14084917 -146.57186956 228.86232098 -148.92252731 229.58767414 C-152.38653603 230.6562971 -155.85418377 231.71224048 -159.32291794 232.76540852 C-160.89005035 233.25273457 -160.89005035 233.25273457 -162.48884201 233.74990559 C-167.75390953 235.33236414 -172.21946347 236.3812122 -177.72135544 235.98415852 C-177.91679314 230.37673951 -177.41398556 225.98218305 -175.74943161 220.56179523 C-175.53967194 219.8680077 -175.32991226 219.17422016 -175.11379623 218.45940876 C-174.42480311 216.19074836 -173.71996604 213.92737783 -173.01432419 211.66384602 C-172.5274411 210.07564844 -172.04139622 208.48719368 -171.55614853 206.89849567 C-170.53990644 203.57966593 -169.51625795 200.26324784 -168.4867363 196.94851398 C-167.17081651 192.71089592 -165.86944317 188.46898907 -164.57308102 184.22535229 C-163.57108738 180.94855735 -162.5634859 177.67350937 -161.55399132 174.39901829 C-161.07235675 172.83577305 -160.59196146 171.2721454 -160.11285591 169.70812321 C-159.4410781 167.51962672 -158.76228683 165.33342942 -158.08146286 163.14773273 C-157.69729706 161.90611378 -157.31313126 160.66449482 -156.91732407 159.38525105 C-154.58923334 152.76463259 -151.60604083 148.42782043 -146.69965744 143.56132221 C-146.08808914 142.94295724 -145.47652084 142.32459227 -144.84642017 141.68748897 C-142.8015641 139.62368848 -140.74618146 137.57071336 -138.69059372 135.51760578 C-137.21984872 134.037882 -135.74972036 132.55754512 -134.28016281 131.07664204 C-130.2915877 127.06158566 -126.29334565 123.05629247 -122.29246759 119.05349946 C-118.95481138 115.71299375 -115.62125989 112.3684057 -112.28749835 109.02401394 C-104.42652432 101.13862474 -96.55703785 93.26179944 -88.68278122 85.38967609 C-80.55116137 77.25986158 -72.43645264 69.11343354 -64.32943165 60.95909554 C-57.37187111 53.96237317 -50.40285933 46.97719963 -43.42473018 40.00099128 C-39.25536076 35.83238827 -35.09082459 31.65921692 -30.93769836 27.47442532 C-27.03568578 23.54347494 -23.11967252 19.62704555 -19.19223022 15.72150707 C-17.7506677 14.28309454 -16.31425153 12.83950382 -14.88331985 11.39051533 C-12.93472237 9.418923 -10.9687114 7.46656637 -8.99702072 5.51810932 C-8.1464732 4.64441577 -8.1464732 4.64441577 -7.27874291 3.75307184 C-3.40513232 -0.01982187 -3.40513232 -0.01982187 0 0 Z M-146.72135544 179.98415852 C-148.17317379 184.64440053 -149.61541091 189.30745687 -151.04874802 193.97341633 C-151.5379679 195.56114689 -152.02982204 197.14806822 -152.52433395 198.73415852 C-153.23363123 201.01073954 -153.93348377 203.29003828 -154.63151169 205.57009602 C-154.85541077 206.28160816 -155.07930984 206.99312031 -155.30999374 207.72619343 C-156.63549446 211.39323316 -156.63549446 211.39323316 -155.72135544 214.98415852 C-144.83135544 211.68415852 -133.94135544 208.38415852 -122.72135544 204.98415852 C-122.39925589 201.85230726 -122.39925589 201.85230726 -124.70914841 199.62405109 C-125.6180986 198.71808186 -126.5270488 197.81211262 -127.46354294 196.87868977 C-127.94711258 196.39462162 -128.43068222 195.91055347 -128.92890549 195.4118166 C-129.95265135 194.39041116 -130.98009178 193.37269739 -132.01090622 192.35842609 C-133.59197707 190.80097149 -135.15928663 189.23060344 -136.72526169 187.65798664 C-141.07771418 182.41863123 -141.07771418 182.41863123 -146.72135544 179.98415852 Z " fill="#FFFFFF" transform="translate(177.72135543823242,20.015841484069824)"/>
<path d="M0 0 C0.73476562 -0.05414063 1.46953125 -0.10828125 2.2265625 -0.1640625 C6.66803967 -0.27353553 9.27844223 0.383256 12.68359375 3.29296875 C14.1002392 4.67560068 15.49498377 6.08080637 16.875 7.5 C18.29253699 8.88375035 19.71011755 10.26745643 21.12854004 11.65029907 C23.18461828 13.66647625 25.21821507 15.70449625 27.25024414 17.74487305 C28.83039644 19.33045796 30.41591976 20.91053442 32.00195312 22.49023438 C33.01073806 23.49967892 34.01921338 24.50943299 35.02734375 25.51953125 C35.93476318 26.42807861 36.84218262 27.33662598 37.77709961 28.27270508 C42.31640392 33.0919851 41.63614119 39.62295094 41.484375 45.921875 C41.02121498 51.6622522 38.46700388 54.69472333 34.26171875 58.50390625 C33.47410156 59.16261719 32.68648437 59.82132813 31.875 60.5 C30.76126234 61.72050119 29.65549943 62.94839267 28.5625 64.1875 C25.875 66.5 25.875 66.5 24.00032043 66.4105835 C21.12650322 65.17931009 19.40919757 63.43860189 17.18237305 61.24316406 C16.25849289 60.33842346 15.33461273 59.43368286 14.38273621 58.50152588 C13.38345843 57.5068333 12.38480049 56.51151769 11.38671875 55.515625 C10.35893027 54.49747729 9.330917 53.47955646 8.3026886 52.46185303 C6.15141338 50.32852845 4.00641857 48.18910484 1.86499023 46.04589844 C-0.88184473 43.29875806 -3.6487633 40.5728597 -6.42141438 37.85181046 C-8.54974281 35.75680598 -10.66432758 33.64833952 -12.77525902 31.53582001 C-13.78995813 30.52466429 -14.80953313 29.51837742 -15.83397865 28.51709747 C-17.26324519 27.11716579 -18.67184139 25.69622388 -20.0793457 24.27441406 C-20.88668655 23.47134827 -21.6940274 22.66828247 -22.52583313 21.84088135 C-24.125 19.5 -24.125 19.5 -23.95755005 16.81066895 C-23.05387858 14.30260879 -22.15432516 13.05092408 -20.25390625 11.203125 C-19.39249023 10.35427734 -19.39249023 10.35427734 -18.51367188 9.48828125 C-17.91103516 8.91464844 -17.30839844 8.34101563 -16.6875 7.75 C-16.08873047 7.16089844 -15.48996094 6.57179688 -14.87304688 5.96484375 C-9.93194408 1.1510034 -6.98224968 0.21374234 0 0 Z " fill="#FFFFFF" transform="translate(215.125,-0.5)"/>
</svg>
