<?xml version="1.0" encoding="UTF-8"?>
<svg version="1.1" xmlns="http://www.w3.org/2000/svg" width="256" height="256">
<path d="M0 0 C1.41143975 0.77334545 2.82153975 1.54913633 4.23109436 2.32591248 C5.01649125 2.75765998 5.80188814 3.18940748 6.61108494 3.63423824 C10.47607539 5.84388405 14.1341541 8.33787351 17.80859375 10.84765625 C18.635905 11.40802582 19.46321625 11.96839539 20.31559753 12.54574585 C22.09608603 13.75214345 23.87547956 14.96015839 25.65386963 16.16964722 C30.45778442 19.43628189 35.2704061 22.6900505 40.08203125 25.9453125 C41.07144714 26.61511642 42.06086304 27.28492035 43.08026123 27.97502136 C54.96015797 36.01238523 66.89204947 43.9717341 78.84423828 51.90112305 C86.39301733 56.91180752 93.93136614 61.93242751 101.39660645 67.0670929 C104.47350917 69.18278679 107.55874797 71.28614442 110.64447021 73.38894653 C112.07618433 74.37030008 113.50342846 75.35821092 114.92584229 76.35299683 C116.86302266 77.70751578 118.81400042 79.03936071 120.76953125 80.3671875 C121.332061 80.76973251 121.89459076 81.17227753 122.47416687 81.58702087 C124.921147 83.22022103 126.37193027 84.10883471 129.33032227 83.59619141 C133.29593258 81.22516623 137.1315963 78.70143028 140.9453125 76.09375 C141.81884369 75.5021106 142.69237488 74.91047119 143.59237671 74.30090332 C146.43944727 72.37145187 149.28214785 70.4356601 152.125 68.5 C155.09168551 66.48777499 158.05952261 64.47725634 161.02740479 62.46679688 C162.99078581 61.13661121 164.95379968 59.80588345 166.91644287 58.47460938 C174.08643653 53.61212057 181.28129265 48.78983015 188.5 44 C202.47961242 34.71192741 216.38501339 25.3138801 230.29492188 15.921875 C231.19886688 15.31160461 232.10281189 14.70133423 233.03414917 14.0725708 C234.72747222 12.92925303 236.42062162 11.785678 238.11355591 10.64178467 C239.64779884 9.6057301 241.18308693 8.57122114 242.71954346 7.53845215 C244.32137249 6.45781883 245.91789338 5.3692956 247.51043701 4.27502441 C248.31829651 3.72439331 249.12615601 3.17376221 249.95849609 2.60644531 C250.68636322 2.10638977 251.41423035 1.60633423 252.16415405 1.09112549 C254 0 254 0 256 0 C256.09368469 14.03906126 256.16383044 28.07807363 256.20724869 42.11738396 C256.22809108 48.63696029 256.25634816 55.15632607 256.30175781 61.67578125 C256.34533405 67.97167139 256.36916228 74.26735947 256.37950897 80.56338882 C256.38687914 82.96107284 256.40127125 85.35874624 256.42292023 87.75634384 C256.45210987 91.12409809 256.45594938 94.49102559 256.45410156 97.85888672 C256.46848267 98.84216446 256.48286377 99.8254422 256.49768066 100.83851624 C256.44439168 109.8600187 253.94859361 117.79435469 247.69921875 124.46875 C240.19200658 131.23386994 232.29532005 133.30501469 222.41841125 133.27415466 C221.57968528 133.27939134 220.74095931 133.28462802 219.87681741 133.29002339 C217.0796946 133.3049681 214.28275562 133.30572732 211.4855957 133.30639648 C209.47449945 133.31402175 207.46340609 133.32244988 205.45231628 133.33161926 C199.99754792 133.35353637 194.54283561 133.36235957 189.08802819 133.36744571 C185.67655479 133.37109292 182.26509599 133.37733493 178.85362816 133.3844471 C166.94188164 133.40893303 155.0301786 133.42199141 143.1184082 133.42553711 C132.03199765 133.4291705 120.94586426 133.45905418 109.85953838 133.50094169 C100.32806877 133.53568618 90.79669083 133.55108628 81.26515836 133.55178314 C75.57837753 133.55257461 69.89187909 133.56125329 64.20516396 133.58978081 C58.85259463 133.61603215 53.5005404 133.61812705 48.14793587 133.60212517 C46.19047671 133.60031624 44.23298746 133.60695075 42.2755928 133.62294388 C29.10369307 133.72395015 18.45961869 132.96469309 8 124 C6.26953125 121.8515625 6.26953125 121.8515625 4.8125 119.625 C4.32394531 118.89539063 3.83539063 118.16578125 3.33203125 117.4140625 C-0.16443601 111.07735643 -0.27795214 105.37533848 -0.22705078 98.31298828 C-0.22734283 97.24897293 -0.22763489 96.18495758 -0.22793579 95.08869934 C-0.22654586 91.58248656 -0.21100026 88.07648802 -0.1953125 84.5703125 C-0.19158118 82.13508215 -0.18873477 79.6998503 -0.18673706 77.26461792 C-0.17911001 70.86295407 -0.15946937 64.46138133 -0.1373291 58.05975342 C-0.11685076 51.52422315 -0.10773108 44.98867812 -0.09765625 38.453125 C-0.0762227 25.63537785 -0.04248366 12.81769378 0 0 Z " fill="#4B4B4B" transform="translate(0,89)"/>
<path d="M0 0 C1.50794726 -0.00935994 1.50794726 -0.00935994 3.04635811 -0.01890898 C6.4190012 -0.03487907 9.79092561 -0.02221857 13.16357422 -0.00964355 C15.57981793 -0.01506286 17.99605835 -0.02218444 20.41229248 -0.03088379 C26.29619854 -0.04724575 32.17991757 -0.04482885 38.06381845 -0.03323323 C42.84580568 -0.02419936 47.6277357 -0.02297468 52.409729 -0.02732849 C53.43065571 -0.02824789 53.43065571 -0.02824789 54.47220719 -0.02918586 C55.85487288 -0.03046476 57.23753855 -0.03176162 58.62020421 -0.03307623 C71.58523491 -0.04448219 84.55015247 -0.03136811 97.51516461 -0.00987476 C108.63956093 0.00799628 119.76379029 0.00489217 130.88818359 -0.0135498 C143.80683834 -0.03495627 156.72539394 -0.04338355 169.64406395 -0.03110075 C171.02164076 -0.02982655 172.39921759 -0.02856907 173.77679443 -0.02732849 C174.45458706 -0.02671139 175.13237969 -0.02609429 175.83071148 -0.02545848 C180.60691211 -0.0220049 185.38304984 -0.02783408 190.15924072 -0.0372467 C196.58772865 -0.04963709 203.01597527 -0.04081454 209.44443512 -0.01766968 C211.80634282 -0.01237224 214.16827703 -0.01391394 216.53017426 -0.02272034 C219.74931845 -0.03361806 222.96744448 -0.01998107 226.18652344 0 C227.59532115 -0.01338433 227.59532115 -0.01338433 229.03257942 -0.02703905 C233.25046236 0.0238956 235.50608043 0.14552045 239.16604614 2.40448761 C242.46184843 6.00166968 242.05226225 9.57032848 242.09326172 14.25793457 C242.16287109 15.1267627 242.23248047 15.99559082 242.30419922 16.89074707 C242.36536112 20.96412952 242.04671032 23.5000905 239.18896484 26.52087402 C236.82165074 28.27224473 234.40662155 29.86740297 231.89111328 31.39727783 C229.26081968 33.02219135 226.71545837 34.7667895 224.15600586 36.50039673 C221.13366021 38.542054 218.09161724 40.55353343 215.05078125 42.56750488 C210.75907689 45.41044991 206.4729733 48.26181061 202.18701172 51.11340332 C201.29046875 51.70978607 200.39392578 52.30616882 199.47021484 52.92062378 C187.18293696 61.1015746 174.95534373 69.37121586 162.72412109 77.63562012 C161.0138687 78.79102536 159.30358303 79.94638134 157.59326172 81.10168457 C156.77378555 81.6552916 155.95430939 82.20889862 155.11000061 82.77928162 C149.47287476 86.58454531 143.81876736 90.36351616 138.15574646 94.13009644 C132.95992959 97.58894656 127.80031804 101.09844171 122.65576172 104.63293457 C121.39795898 105.49531738 121.39795898 105.49531738 120.11474609 106.37512207 C118.10699278 107.7518672 116.0998265 109.12945807 114.09326172 110.50793457 C106.00987068 106.29367227 98.58347742 101.23355503 91.06329346 96.1065979 C88.65292883 94.4633956 86.23947332 92.82482435 83.82519531 91.18737793 C80.36414552 88.83969866 76.90414732 86.49048153 73.44482422 84.14025879 C64.54825632 78.09880521 55.63345168 72.08435811 46.71826172 66.07043457 C45.83134644 65.47186646 44.94443115 64.87329834 44.03063965 64.2565918 C28.6812186 53.89888639 13.28631233 43.61041305 -2.13867188 33.36560059 C-2.92671204 32.84166214 -3.7147522 32.31772369 -4.52667236 31.77790833 C-5.99877604 30.79926214 -7.47152083 29.82157941 -8.94500732 28.84501648 C-13.79440927 25.62026358 -13.79440927 25.62026358 -14.90673828 24.50793457 C-15.24020853 21.24710211 -15.23165818 17.97112817 -15.28173828 14.69543457 C-15.31912109 13.77955566 -15.35650391 12.86367676 -15.39501953 11.92004395 C-15.40662109 11.03510254 -15.41822266 10.15016113 -15.43017578 9.23840332 C-15.44999512 8.42782471 -15.46981445 7.61724609 -15.49023438 6.78210449 C-13.59025045 -0.62306298 -6.16941981 -0.05861278 0 0 Z " fill="#4B4B4B" transform="translate(14.90673828125,33.4920654296875)"/>
</svg>
