<?xml version="1.0" encoding="UTF-8"?>
<svg version="1.1" xmlns="http://www.w3.org/2000/svg" width="256" height="256">
<path d="M0 0 C3.61438933 2.76078861 6.83119815 5.74284865 10 9 C10.54914063 9.51691406 11.09828125 10.03382812 11.6640625 10.56640625 C15.47965457 14.47381738 17.84325513 19.18152016 20.3125 24 C20.8377124 25.01525757 20.8377124 25.01525757 21.37353516 26.05102539 C23.52107983 30.41550999 24.56443812 34.15200687 25 39 C25.66 39 26.32 39 27 39 C27.0928125 38.00613281 27.185625 37.01226562 27.28125 35.98828125 C27.90978908 31.64634202 29.52250226 28.07422472 31.5 24.1875 C31.85384766 23.48826416 32.20769531 22.78902832 32.57226562 22.06860352 C35.85742084 15.83702077 39.90427464 10.869851 45 6 C45.93585938 5.03513672 45.93585938 5.03513672 46.890625 4.05078125 C58.84417325 -7.52607955 75.29248217 -10.49663752 91.28344727 -10.34936523 C108.04989166 -9.90549006 122.5369933 -3.66847698 134.37890625 8.1875 C149.38483455 24.28924124 154.15578709 44.73866912 154.25 66.125 C154.2809375 67.84589844 154.2809375 67.84589844 154.3125 69.6015625 C154.42911542 95.49018567 141.59361036 116.09417966 124 134 C122.93355988 135.10543607 121.86715463 136.21090579 120.80078125 137.31640625 C114.23809442 144.05764968 107.43700477 150.22080825 100 156 C98.58969837 157.10398098 97.17955453 158.20816354 95.76953125 159.3125 C88.95528289 164.63737842 82.11007506 169.92184811 75.25 175.1875 C51.73033587 192.77387606 51.73033587 192.77387606 30.3359375 212.7890625 C29 214 29 214 26.125 214.5 C21.8813079 213.82100926 20.82240283 212.22560324 18 209 C12.44903157 203.00115392 6.30374743 197.97463676 -0.1484375 192.99609375 C-4.20233194 189.86353896 -8.1632484 186.62275624 -12.125 183.375 C-17.68255982 178.8339942 -23.31382792 174.44445401 -29.078125 170.16796875 C-39.02786785 162.78547238 -48.61224607 155.08250472 -58 147 C-58.71671875 146.39671875 -59.4334375 145.7934375 -60.171875 145.171875 C-80.40246507 127.9507942 -97.44646937 106.878654 -102 80 C-103.62036315 54.72903987 -100.96116726 29.14455485 -83.64453125 9.30078125 C-61.50445169 -13.66311522 -26.96254169 -16.52851668 0 0 Z " fill="#EFEFEF" transform="translate(102,26)"/>
</svg>
