<?xml version="1.0" encoding="UTF-8"?>
<svg version="1.1" xmlns="http://www.w3.org/2000/svg" width="256" height="256">
<path d="M0 0 C2.506821 1.93902025 4.87505045 3.95754787 7.22265625 6.0859375 C7.99222656 6.77429688 8.76179687 7.46265625 9.5546875 8.171875 C19.91588491 17.95058601 26.28304958 29.52404254 30.22265625 43.0859375 C30.42133301 43.76672363 30.62000977 44.44750977 30.82470703 45.14892578 C32.95370713 53.8506275 32.44008142 62.81893846 32.34765625 71.7109375 C32.33760582 73.39973427 32.32848362 75.08853684 32.3203125 76.77734375 C32.30017939 80.88047095 32.26100351 84.98278023 32.22265625 89.0859375 C40.47265625 89.0859375 48.72265625 89.0859375 57.22265625 89.0859375 C57.31335883 103.15181489 57.38660328 117.21749509 57.42990494 131.28359985 C57.45069722 137.81645658 57.47886118 144.34910122 57.52441406 150.88183594 C57.56817102 157.19720518 57.59185607 163.51237161 57.60216522 169.82788086 C57.6095033 172.22618803 57.62383136 174.62448527 57.64557648 177.02270508 C57.81883518 196.93989981 57.21309364 214.56641616 42.84765625 229.8984375 C32.07122824 239.88634639 20.33821404 243.71199435 5.75976562 243.60351562 C3.98651665 243.61402954 3.98651665 243.61402954 2.17744446 243.62475586 C-1.69314737 243.64222344 -5.56299573 243.63075228 -9.43359375 243.6171875 C-12.14539166 243.61808098 -14.85717677 243.6237658 -17.56896973 243.62878418 C-23.23762929 243.63603075 -28.90607938 243.62655216 -34.57470703 243.60742188 C-41.09822903 243.58565867 -47.62125071 243.59271219 -54.14476061 243.6147275 C-59.77830761 243.6329675 -65.41170532 243.63539816 -71.04527235 243.62497282 C-74.39573915 243.61878466 -77.74578583 243.61937678 -81.0962677 243.63111877 C-84.83600006 243.64135074 -88.57479038 243.62568877 -92.31445312 243.60351562 C-93.94667061 243.61566101 -93.94667061 243.61566101 -95.61186218 243.62805176 C-107.12111554 243.50251563 -116.68142433 240.09225381 -125.77734375 233.0859375 C-126.71707031 232.39177734 -126.71707031 232.39177734 -127.67578125 231.68359375 C-138.22372315 223.36960461 -143.04374703 211.03663079 -144.77734375 198.0859375 C-145.0210485 194.32985479 -145.03201317 190.59422294 -145.00439453 186.83129883 C-145.00468658 185.76655334 -145.00497864 184.70180786 -145.00527954 183.60479736 C-145.00389902 180.12576822 -144.98839847 176.64695994 -144.97265625 173.16796875 C-144.96892157 170.73988461 -144.96607675 168.31179896 -144.96408081 165.88371277 C-144.95648017 159.52322152 -144.93686258 153.16282302 -144.91467285 146.80236816 C-144.89413724 140.29989883 -144.88506265 133.79741436 -144.875 127.29492188 C-144.85361311 114.55854665 -144.8184603 101.82226433 -144.77734375 89.0859375 C-136.52734375 89.0859375 -128.27734375 89.0859375 -119.77734375 89.0859375 C-119.82375 86.68441406 -119.87015625 84.28289062 -119.91796875 81.80859375 C-119.94938204 79.41872254 -119.97354476 77.02887647 -119.99707031 74.63891602 C-120.01688396 73.00892427 -120.04394298 71.37900054 -120.07910156 69.74926758 C-120.55136265 47.25436099 -115.2665917 26.85766582 -99.6875 9.98828125 C-73.43107946 -16.92124017 -30.90324141 -21.29759253 0 0 Z M-75.0859375 39.7109375 C-85.71914592 54.64163201 -81.77734375 70.22173112 -81.77734375 89.0859375 C-56.36734375 89.0859375 -30.95734375 89.0859375 -4.77734375 89.0859375 C-3.48623813 59.96134714 -3.48623813 59.96134714 -16.15234375 35.1484375 C-24.04959647 28.06160154 -33.72951707 23.26993987 -44.625 23.8046875 C-57.17493519 25.44460644 -66.90109629 29.92219811 -75.0859375 39.7109375 Z M-61.65625 141.0234375 C-66.37604266 147.02837853 -69.39266564 153.48943842 -68.53125 161.32421875 C-67.11091636 168.80296669 -63.65232518 173.98887805 -57.75390625 178.7578125 C-51.91622489 182.68036519 -46.09646493 183.67457625 -39.19140625 182.6484375 C-31.43384026 180.84084931 -26.14796013 176.73387504 -21.77734375 170.0859375 C-18.09057507 162.78613552 -18.27123017 155.78480338 -20.77734375 148.0859375 C-24.1908036 141.55067419 -29.73550815 136.43321603 -36.77734375 134.0859375 C-46.31305606 133.14975256 -54.70798431 133.85848993 -61.65625 141.0234375 Z " fill="#4B4B4B" transform="translate(171.77734375,12.9140625)"/>
</svg>
