<?xml version="1.0" encoding="UTF-8"?>
<svg version="1.1" xmlns="http://www.w3.org/2000/svg" width="256" height="256">
<path d="M0 0 C0.88945312 0.73863281 0.88945312 0.73863281 1.796875 1.4921875 C4.8328825 3.57002242 8.1220513 4.34618343 11.625 5.3125 C21.96232388 8.38515782 30.50101326 12.26041533 36 22 C39.80033459 29.78396505 41.18238263 36.98386052 40.9921875 45.66796875 C40.96705078 47.50198242 40.96705078 47.50198242 40.94140625 49.37304688 C40.8969289 51.92787811 40.84477474 54.48258661 40.78515625 57.03710938 C40.77097656 58.25591797 40.75679687 59.47472656 40.7421875 60.73046875 C40.7201123 61.83801514 40.69803711 62.94556152 40.67529297 64.08666992 C41.04186041 67.37557913 41.93945661 68.50019866 44 71 C44.76081991 77.90824475 42.88846361 83.72113968 40.75 90.25 C40.44964844 91.2296875 40.14929688 92.209375 39.83984375 93.21875 C39.53691406 94.16234375 39.23398438 95.1059375 38.921875 96.078125 C38.51340332 97.35284668 38.51340332 97.35284668 38.09667969 98.65332031 C36.80841823 101.40994745 35.29688512 103.02283596 33 105 C30.75 105.75 30.75 105.75 29 106 C28.82984375 106.97839844 28.6596875 107.95679687 28.484375 108.96484375 C25.24612571 126.80254184 25.24612571 126.80254184 19.39453125 132.56640625 C15.78208572 136.81176182 16.38108771 141.56068696 16.5625 146.875 C16.56830078 147.83019531 16.57410156 148.78539062 16.58007812 149.76953125 C16.55426002 159.37509572 16.55426002 159.37509572 20.53125 167.7421875 C21.1809375 168.11601562 21.830625 168.48984375 22.5 168.875 C23.30308594 169.35066406 24.10617188 169.82632813 24.93359375 170.31640625 C25.94550781 170.87199219 26.95742187 171.42757812 28 172 C29.34555718 172.75821891 30.69056572 173.51741194 32.03515625 174.27734375 C37.41385838 177.29809665 42.81948869 180.26959092 48.23828125 183.21777344 C56.29227147 187.60393298 64.10130579 191.87706256 71 198 C71.68320313 198.59039062 72.36640625 199.18078125 73.0703125 199.7890625 C82.4404712 208.44666161 87.6441343 219.54756702 90 232 C90.0581408 234.33260886 90.07389616 236.6678371 90 239 C74.70794882 247.51472702 56.98440684 249.06539612 39.78515625 250.625 C39.08276825 250.68936878 38.38038025 250.75373756 37.65670776 250.82005692 C22.38548905 252.18841252 7.16776785 252.46398185 -8.15673828 252.39111328 C-11.77596482 252.37402274 -15.39452878 252.38422514 -19.01373291 252.40143299 C-34.33384862 252.46302281 -49.51990809 252.02441638 -64.78125 250.62890625 C-65.45274582 250.56825863 -66.12424164 250.50761101 -66.81608582 250.44512558 C-107.29937458 246.70062542 -107.29937458 246.70062542 -116 238 C-116.96039469 224.48059783 -109.57295205 211.39877206 -101.5234375 201.11328125 C-90.77929551 189.29472506 -74.73224518 182.55649404 -60.703125 175.53344727 C-59.70407639 175.03004066 -59.70407639 175.03004066 -58.68484497 174.51646423 C-56.85095603 173.59378679 -55.01323866 172.67872998 -53.17529297 171.76416016 C-48.89106293 169.38388595 -45.65851643 167.5579535 -43.71875 162.96875 C-42.56894176 157.8813909 -42.55319149 152.69281948 -42.5 147.5 C-42.45875 146.49324219 -42.4175 145.48648438 -42.375 144.44921875 C-42.3216412 139.36012342 -42.409349 136.02616457 -45.89453125 132.140625 C-46.71074951 131.33431641 -46.71074951 131.33431641 -47.54345703 130.51171875 C-49.63147417 128.34460475 -50.34684448 126.10743941 -51.1875 123.25 C-51.50203125 122.22519531 -51.8165625 121.20039062 -52.140625 120.14453125 C-52.70808285 118.06815137 -53.24019018 115.98174695 -53.734375 113.88671875 C-54.83898606 108.22843342 -54.83898606 108.22843342 -58.5 104.125 C-59.7375 103.568125 -59.7375 103.568125 -61 103 C-64.17012792 98.67400775 -65.59404114 93.74328924 -67.1875 88.6875 C-67.59645508 87.46256836 -67.59645508 87.46256836 -68.01367188 86.21289062 C-69.68757608 80.94785358 -70.5509146 76.52691742 -70 71 C-69.50516113 70.41234863 -69.01032227 69.82469727 -68.50048828 69.21923828 C-66.36830635 66.06571831 -66.63104951 63.62765154 -66.62890625 59.84765625 C-66.61149456 58.41601359 -66.59391058 56.98437302 -66.57617188 55.55273438 C-66.56620046 53.32181345 -66.56247785 51.09104946 -66.56420898 48.86010742 C-66.54609785 38.06707621 -66.36399579 26.75299256 -59.6875 17.6875 C-56.51295412 11.8883172 -58.29823326 4.35404018 -59 -2 C-58.21238281 -1.97679687 -57.42476562 -1.95359375 -56.61328125 -1.9296875 C-50.95738094 -1.83598028 -45.62934451 -1.95437577 -40.0625 -3 C-27.45921386 -5.11845735 -11.45947868 -6.61464117 0 0 Z " fill="#4B4B4B" transform="translate(141,4)"/>
</svg>
