<?xml version="1.0" encoding="UTF-8"?>
<svg version="1.1" xmlns="http://www.w3.org/2000/svg" width="256" height="256">
<path d="M0 0 C20.6438538 15.70009747 35.20163548 37.3008445 39.65625 63.171875 C42.9988212 90.67211988 38.13150257 116.45834425 21.75 139.25 C4.52323548 160.94514029 -18.41625029 174.91718976 -46.10546875 178.5859375 C-73.07899149 181.4537343 -100.01435882 173.21655669 -121.07128906 156.2722168 C-139.87343551 140.56528378 -153.22038272 117.50897326 -156 93 C-157.6713033 61.28244104 -150.7807944 35.37098253 -129.296875 11.4296875 C-96.33933507 -23.79196061 -38.66553842 -28.64517353 0 0 Z M-111.37890625 35.73046875 C-123.33118167 51.44759752 -129.00294184 69.37031034 -127 89 C-124.97534414 102.97390986 -119.34929323 115.3977087 -110 126 C-109.34386719 126.75023437 -108.68773438 127.50046875 -108.01171875 128.2734375 C-97.73479316 139.28308722 -82.18948668 148.25103728 -66.83740234 149.12280273 C-56.23630695 149.46373728 -46.11432745 149.5679376 -36 146 C-35.18015625 145.74476563 -34.3603125 145.48953125 -33.515625 145.2265625 C-16.72623535 139.39839858 -2.92377511 125.6522459 5 110 C12.48800974 92.48128333 13.76236092 72.97208143 7 55 C-0.04922475 37.73306858 -13.17358574 24.00331973 -30.1640625 16.09765625 C-59.21072633 4.855077 -90.69396633 11.98864115 -111.37890625 35.73046875 Z " fill="#E1E1E1" transform="translate(156,18)"/>
<path d="M0 0 C3.97220132 1.60503053 6.66510232 4.36933 9.63891602 7.34838867 C10.46649414 8.16589096 10.46649414 8.16589096 11.31079102 8.99990845 C13.13049752 10.80064008 14.94258848 12.60880178 16.75390625 14.41796875 C18.01880927 15.67644296 19.28386173 16.934767 20.54905701 18.19294739 C23.1996135 20.831532 25.84600594 23.47421536 28.48999023 26.11938477 C31.87146235 29.50105993 35.26647024 32.86877849 38.66522312 36.23307323 C41.28267815 38.82824213 43.89094285 41.4325004 46.49674797 44.03936195 C47.74420658 45.28446671 48.99489534 46.52634418 50.24890327 47.76485252 C52.00579045 49.50204824 53.74943875 51.25157964 55.49047852 53.00463867 C56.0064006 53.50932175 56.52232269 54.01400482 57.05387878 54.53398132 C62.01372982 59.58088763 64.42790892 64.79214739 64.4375 71.9375 C64.26599891 77.43239493 63.48914538 81.66031503 60 86 C54.77075296 90.80838208 50.4944137 93.13777995 43.3125 93.3125 C41.82169922 93.36857422 41.82169922 93.36857422 40.30078125 93.42578125 C33.00441084 92.48459264 27.76567428 88.35973077 22.76757812 83.22167969 C22.20070282 82.65538849 21.63382751 82.08909729 21.04977417 81.50564575 C19.2006094 79.65372081 17.36597765 77.78809428 15.53125 75.921875 C14.24318818 74.62634347 12.9542334 73.33169921 11.66442871 72.03790283 C8.28869713 68.64697263 4.92515682 65.2442001 1.56408691 61.83874512 C-1.87441614 58.35916467 -5.32441423 54.8910223 -8.7734375 51.421875 C-15.52686885 44.62567472 -22.26746513 37.8168972 -29 31 C-27.82535841 27.47607524 -26.80741298 26.8495333 -23.875 24.6875 C-23.05773437 24.06746094 -22.24046875 23.44742188 -21.3984375 22.80859375 C-20.60695312 22.21175781 -19.81546875 21.61492187 -19 21 C-11.37386032 15.17492735 -5.68782035 7.66775782 0 0 Z " fill="#E1E1E1" transform="translate(192,163)"/>
<path d="M0 0 C1.8359375 1.296875 1.8359375 1.296875 3 3 C2.6875 6.6875 2.6875 6.6875 2 10 C-1.57799029 11.54370331 -5.00077266 12.47066912 -8.8125 13.25 C-15.97827753 15.05243484 -20.67536987 17.40408777 -24.75 23.70703125 C-27.77153264 29.36514165 -29.70699079 34.66560411 -30.48046875 41.0390625 C-31 43 -31 43 -34 45 C-36.71697198 44.7962271 -38.49716042 44.31210733 -40.8125 42.875 C-43.25407222 39.01988596 -42.26558355 35.26611529 -41.37890625 31.0390625 C-38.47421242 20.16905269 -33.21473368 11.04616116 -23.34375 5.21484375 C-15.7797604 1.29417581 -8.69899964 -1.6066372 0 0 Z " fill="#E1E1E1" transform="translate(89,51)"/>
</svg>
