<?xml version="1.0" encoding="UTF-8"?>
<svg version="1.1" xmlns="http://www.w3.org/2000/svg" width="256" height="256">
<path d="M0 0 C0.66 0 1.32 0 2 0 C4.41360949 5.83671194 6.82646662 11.67373426 9.23876953 17.51098633 C10.05076173 19.47557991 10.86292279 21.4401037 11.67529297 23.40454102 C20.1586094 43.91922762 28.57966673 64.45940333 37 85 C38.07883957 85.08547592 39.15767914 85.17095184 40.26921082 85.25901794 C50.43676093 86.0649797 60.6040572 86.87407831 70.7711134 87.68624783 C75.9980825 88.10368956 81.22513474 88.52002607 86.45239258 88.93383789 C91.49706497 89.33323638 96.54149832 89.73553656 101.58577919 90.13984871 C103.51020391 90.29358322 105.43471244 90.4462724 107.35930443 90.59789848 C110.05511398 90.81046352 112.75060151 91.02674472 115.44604492 91.24389648 C116.63935173 91.33668633 116.63935173 91.33668633 117.85676575 91.43135071 C121.63441633 91.73950023 125.30381024 92.14854742 129 93 C129 93.66 129 94.32 129 95 C127.42713316 96.41438406 125.78860004 97.75604401 124.125 99.0625 C120.31164438 102.11025865 116.60191191 105.20500341 113 108.5 C109.68010514 111.52282421 106.30235888 114.42512161 102.8125 117.25 C97.0436879 121.92192529 91.44907053 126.77833282 85.8515625 131.65234375 C82.10579965 134.91352817 78.33718303 138.14737248 74.5625 141.375 C69.68023241 145.55174152 64.82235292 149.75407994 60 154 C62.60795507 165.85934285 65.30914067 177.69248155 68.109375 189.5078125 C68.48490729 191.09631917 68.8603323 192.6848512 69.23565674 194.27340698 C70.20778189 198.38666489 71.1813302 202.49958456 72.1552124 206.61242676 C73.15514445 210.83645989 74.15367899 215.06082336 75.15234375 219.28515625 C77.10022257 227.52375487 79.04961038 235.76199542 81 244 C77.67448425 242.69617819 74.62011645 241.305731 71.54296875 239.48828125 C70.26462158 238.73466309 70.26462158 238.73466309 68.96044922 237.96582031 C68.04537598 237.42022461 67.13030273 236.87462891 66.1875 236.3125 C65.21828613 235.73725586 64.24907227 235.16201172 63.25048828 234.56933594 C56.23555743 230.38491224 49.29285282 226.0925853 42.375 221.75 C41.40288574 221.1420459 40.43077148 220.5340918 39.42919922 219.90771484 C35.0433277 217.16468312 30.65839167 214.42071124 26.29248047 211.64599609 C23.10107987 209.6186308 19.89844874 207.61009708 16.6885376 205.61218262 C15.4450608 204.83357851 14.20567764 204.0483953 12.97064209 203.25646973 C11.24708279 202.15243083 9.5106613 201.07213866 7.76953125 199.99609375 C6.77542236 199.36888428 5.78131348 198.7416748 4.75708008 198.09545898 C2.06884903 196.71666442 2.06884903 196.71666442 -0.57275391 197.64428711 C-1.77424072 198.31536499 -1.77424072 198.31536499 -3 199 C-3.74789795 199.41523926 -4.4957959 199.83047852 -5.26635742 200.25830078 C-6.03826416 200.73251465 -6.8101709 201.20672852 -7.60546875 201.6953125 C-8.49298828 202.23800781 -9.38050781 202.78070313 -10.29492188 203.33984375 C-11.24947266 203.92894531 -12.20402344 204.51804688 -13.1875 205.125 C-14.69860352 206.05119141 -14.69860352 206.05119141 -16.24023438 206.99609375 C-19.49607465 208.99322257 -22.74832899 210.99609112 -26 213 C-28.16269333 214.33083819 -30.32545357 215.66156767 -32.48828125 216.9921875 C-35.74330946 218.99545081 -38.99822028 220.99890431 -42.25292969 223.00268555 C-45.50154586 225.00245326 -48.75062247 227.00146965 -52 229 C-53.1019873 229.67788574 -54.20397461 230.35577148 -55.33935547 231.05419922 C-58.5366377 233.01874891 -61.73662264 234.97881474 -64.9375 236.9375 C-66.39446289 237.8337207 -66.39446289 237.8337207 -67.88085938 238.74804688 C-68.77482422 239.29396484 -69.66878906 239.83988281 -70.58984375 240.40234375 C-71.37222412 240.88179443 -72.15460449 241.36124512 -72.96069336 241.85522461 C-75 243 -75 243 -78 244 C-77.4630231 238.12231319 -76.56284825 232.49974597 -75.14233398 226.77392578 C-74.95687012 226.00689835 -74.77140625 225.23987091 -74.58032227 224.44960022 C-73.97396666 221.9469124 -73.35996505 219.44616629 -72.74609375 216.9453125 C-72.32095518 215.19430448 -71.89640925 213.44315247 -71.47242737 211.69186401 C-70.36082702 207.10526251 -69.24319629 202.52015531 -68.12365723 197.93548584 C-66.32721956 190.57731422 -64.53701022 183.21764123 -62.75251961 175.85656357 C-62.12848413 173.28822899 -61.50001893 170.72100623 -60.87120056 168.15383911 C-60.49005102 166.58583717 -60.10906564 165.01779532 -59.72827148 163.44970703 C-59.5521785 162.73592392 -59.37608551 162.02214081 -59.19465637 161.28672791 C-58.50745163 158.44186804 -58 155.93968631 -58 153 C-60.11295335 150.93463004 -60.11295335 150.93463004 -62.875 148.875 C-66.6978899 145.85384149 -70.40753436 142.79213089 -74 139.5 C-77.31989486 136.47717579 -80.69764112 133.57487839 -84.1875 130.75 C-89.9563121 126.07807471 -95.55092947 121.22166718 -101.1484375 116.34765625 C-104.89420035 113.08647183 -108.66281697 109.85262752 -112.4375 106.625 C-117.31971151 102.44830645 -122.18130666 98.25002767 -127 94 C-123.12706775 91.50300546 -118.93394418 91.45223246 -114.46777344 91.13037109 C-113.60887512 91.06180405 -112.74997681 90.993237 -111.86505127 90.92259216 C-109.03038403 90.69827747 -106.19495976 90.48581135 -103.359375 90.2734375 C-101.39205323 90.1200832 -99.42478892 89.96599007 -97.45758057 89.81118774 C-92.28289955 89.40598295 -87.10749858 89.01082267 -81.93188477 88.61773682 C-76.64943164 88.2147537 -71.36771963 87.80229294 -66.0859375 87.390625 C-55.72466235 86.58446321 -45.36260205 85.78890903 -35 85 C-34.59110031 83.9874968 -34.18220062 82.97499359 -33.76091003 81.93180847 C-19.00046767 45.39490357 -19.00046767 45.39490357 -11.3125 27.3125 C-9.99470886 24.20501255 -8.67853424 21.09684376 -7.36328125 17.98828125 C-6.91301071 16.92481979 -6.91301071 16.92481979 -6.4536438 15.83987427 C-4.2345847 10.58662185 -2.07844403 5.31066676 0 0 Z " fill="#4B4B4B" transform="translate(127,6)"/>
</svg>
