<?xml version="1.0" encoding="UTF-8"?>
<svg version="1.1" xmlns="http://www.w3.org/2000/svg" width="256" height="256">
<path d="M0 0 C22.05195399 18.35901142 36.73449116 41.28264699 44 69 C44.3196875 70.15628906 44.639375 71.31257813 44.96875 72.50390625 C49.35284276 91.31897101 48.96969942 113.33517469 44 132 C43.81727539 132.69351563 43.63455078 133.38703125 43.44628906 134.1015625 C35.10299772 164.67993075 15.25332865 192.53444728 -12 209 C-13.3303125 209.804375 -13.3303125 209.804375 -14.6875 210.625 C-35.09354779 222.28559874 -56.44591747 228.40712584 -80 228.375 C-81.01613373 228.37418427 -81.01613373 228.37418427 -82.05279541 228.37335205 C-93.72880182 228.33045458 -104.75341472 227.2665911 -116 224 C-116.72783691 223.79101074 -117.45567383 223.58202148 -118.20556641 223.36669922 C-139.08934627 217.1476838 -156.2058576 205.85203566 -172 191 C-172.88558594 190.21109375 -172.88558594 190.21109375 -173.7890625 189.40625 C-188.88646754 175.3821202 -199.82296404 154.76332262 -205 135 C-205.19319824 134.30487305 -205.38639648 133.60974609 -205.58544922 132.89355469 C-211.48315015 111.06483956 -211.26252076 86.71966972 -205 65 C-204.79101074 64.27071289 -204.58202148 63.54142578 -204.36669922 62.79003906 C-194.1447588 28.47188405 -170.59099966 2.01749709 -139.4375 -14.875 C-131.86827408 -18.81373747 -124.26258171 -21.80412474 -116 -24 C-115.30197266 -24.19464844 -114.60394531 -24.38929687 -113.88476562 -24.58984375 C-74.17820412 -35.31376945 -31.80369173 -25.45604132 0 0 Z M-86 -13 C-86 -7.72 -86 -2.44 -86 3 C-82.7 3 -79.4 3 -76 3 C-76 -2.28 -76 -7.56 -76 -13 C-79.3 -13 -82.6 -13 -86 -13 Z M-138.0625 2.5 C-139.16271484 3.19609375 -139.16271484 3.19609375 -140.28515625 3.90625 C-140.85105469 4.2671875 -141.41695313 4.628125 -142 5 C-141.57847656 5.77085938 -141.15695313 6.54171875 -140.72265625 7.3359375 C-140.17480469 8.33882812 -139.62695312 9.34171875 -139.0625 10.375 C-138.51722656 11.37273438 -137.97195312 12.37046875 -137.41015625 13.3984375 C-136.5850241 14.92070346 -135.77435609 16.45128783 -135 18 C-131.17902761 17.46930939 -128.93828597 16.50298434 -126 14 C-127.76429199 9.02790438 -130.3939166 4.56561939 -133 0 C-134.89945294 0 -136.50909875 1.51371349 -138.0625 2.5 Z M-29 0 C-30.23377921 1.90836353 -31.41184254 3.85289547 -32.5625 5.8125 C-33.20316406 6.89144531 -33.84382812 7.97039063 -34.50390625 9.08203125 C-36.22812205 11.89840199 -36.22812205 11.89840199 -36 15 C-32.04 16.98 -32.04 16.98 -28 19 C-25.36 14.38 -22.72 9.76 -20 5 C-21.299375 4.175 -22.59875 3.35 -23.9375 2.5 C-24.66839844 2.0359375 -25.39929688 1.571875 -26.15234375 1.09375 C-27.78556804 -0.08490056 -27.78556804 -0.08490056 -29 0 Z M-36 40 C-37.02496052 41.0206414 -38.05376518 42.03743371 -39.0859375 43.05078125 C-44.37031555 48.28420252 -49.57749138 53.50237874 -54.39453125 59.17578125 C-56.80781466 61.91788186 -59.4294709 64.43824828 -62.03125 67 C-64.54660646 69.55528276 -66.86189663 72.25603616 -69.1953125 74.9765625 C-71.79974834 77.89668754 -74.58952374 80.61378555 -77.3984375 83.3359375 C-79.08628724 84.92422733 -79.08628724 84.92422733 -80 87 C-83.47490805 85.72421777 -86.32842271 84.24535788 -89.3359375 82.09375 C-90.14587158 81.51882812 -90.95580566 80.94390625 -91.7902832 80.3515625 C-92.64323975 79.74054688 -93.49619629 79.12953125 -94.375 78.5 C-96.16756418 77.23900803 -97.96053681 75.97859649 -99.75390625 74.71875 C-102.99114362 72.43377983 -106.20551251 70.1223005 -109.40234375 67.78125 C-110.70526862 66.85351953 -112.00862435 65.92639373 -113.3125 65 C-114.18044189 64.34161133 -114.18044189 64.34161133 -115.06591797 63.66992188 C-118.39434719 61.34147913 -119.72304594 60.95298619 -123.796875 61.64453125 C-127.20005383 63.08465693 -128.46887899 63.66756015 -130 67 C-131.00234186 70.32594755 -131.00234186 70.32594755 -130 74 C-127.38908209 77.14749753 -124.23451874 79.51915553 -121 82 C-119.99839844 82.78503906 -118.99679688 83.57007813 -117.96484375 84.37890625 C-115.22884466 86.51167307 -112.46857123 88.61087038 -109.70263672 90.70458984 C-107.44340176 92.42347437 -105.20332195 94.16645738 -102.96264648 95.90942383 C-101.33852536 97.16734277 -99.70604081 98.41347451 -98.0703125 99.65625 C-96.10920301 101.15328015 -94.16448534 102.67219877 -92.2421875 104.21875 C-91.39914063 104.8684375 -90.55609375 105.518125 -89.6875 106.1875 C-88.96949219 106.75855469 -88.25148437 107.32960938 -87.51171875 107.91796875 C-83.85836017 109.49181063 -80.69248232 109.23205658 -77 108 C-74.01266733 105.71697902 -74.01266733 105.71697902 -71.5625 102.625 C-71.09642334 102.08407715 -70.63034668 101.5431543 -70.15014648 100.98583984 C-68.74371512 99.34168488 -67.36873711 97.67559263 -66 96 C-65.2471875 95.0925 -64.494375 94.185 -63.71875 93.25 C-62.26351041 91.47840397 -60.81707084 89.69954769 -59.37890625 87.9140625 C-56.64094958 84.56017798 -53.82783535 81.2780711 -51 78 C-46.70699081 73.01895252 -42.5023995 67.98003607 -38.37109375 62.86328125 C-36.5617161 60.67831615 -34.7271333 58.54130022 -32.84765625 56.41796875 C-32.30367188 55.79921875 -31.7596875 55.18046875 -31.19921875 54.54296875 C-30.13533056 53.33689025 -29.06407416 52.13725761 -27.984375 50.9453125 C-24.94911647 47.49360689 -22.98469508 44.61045973 -22 40 C-22.81207646 37.03506935 -22.81207646 37.03506935 -25 35 C-30.62774941 33.77657622 -32.28783794 36.0786265 -36 40 Z M-177 40 C-179.475 44.455 -179.475 44.455 -182 49 C-179.87767021 50.17176518 -177.75242209 51.33754785 -175.625 52.5 C-175.02171875 52.83386719 -174.4184375 53.16773437 -173.796875 53.51171875 C-170.58585223 55.38773938 -170.58585223 55.38773938 -167 56 C-166.34 54.88625 -165.68 53.7725 -165 52.625 C-164.62875 51.99851562 -164.2575 51.37203125 -163.875 50.7265625 C-162.84931652 49.02527333 -162.84931652 49.02527333 -163 47 C-165.63670716 45.17157395 -165.63670716 45.17157395 -168.875 43.375 C-169.96554688 42.74335937 -171.05609375 42.11171875 -172.1796875 41.4609375 C-174.76660685 39.84668062 -174.76660685 39.84668062 -177 40 Z M7.9375 43.3125 C6.28041016 44.23482422 6.28041016 44.23482422 4.58984375 45.17578125 C3.73519531 45.77777344 2.88054687 46.37976563 2 47 C2 50.69418201 3.28179295 52.77836178 5 56 C10.31027254 54.53967505 14.46330032 52.01679014 19 49 C18.22875649 45.52940421 16.98164361 42.97246541 15 40 C12.64422667 40 9.88691348 42.21125238 7.9375 43.3125 Z M-194 96 C-194 99.3 -194 102.6 -194 106 C-188.72 106 -183.44 106 -178 106 C-178 102.7 -178 99.4 -178 96 C-183.28 96 -188.56 96 -194 96 Z M16 96 C16 99.3 16 102.6 16 106 C21.28 106 26.56 106 32 106 C32 102.7 32 99.4 32 96 C26.72 96 21.44 96 16 96 Z M-175.6875 149.5 C-176.68136719 150.1496875 -177.67523438 150.799375 -178.69921875 151.46875 C-179.45847656 151.9740625 -180.21773437 152.479375 -181 153 C-179.93172545 157.24590099 -179.93172545 157.24590099 -177.265625 160.5859375 C-173.67240599 161.24262925 -171.76559134 159.52613367 -168.75 157.625 C-167.67234375 156.95726562 -166.5946875 156.28953125 -165.484375 155.6015625 C-164.66453125 155.07304687 -163.8446875 154.54453125 -163 154 C-164.32 151.36 -165.64 148.72 -167 146 C-170.88291746 146 -172.46752535 147.37860494 -175.6875 149.5 Z M5 146 C3.68 148.64 2.36 151.28 1 154 C7.435 157.96 7.435 157.96 14 162 C17.9345341 157.29821343 17.9345341 157.29821343 19 152 C17.2335343 150.9923048 15.46166177 149.99408286 13.6875 149 C12.70136719 148.443125 11.71523437 147.88625 10.69921875 147.3125 C8.05057529 145.78135247 8.05057529 145.78135247 5 146 Z M-134 183 C-136.64 187.29 -139.28 191.58 -142 196 C-137.71418455 199.7258644 -137.71418455 199.7258644 -133 201 C-131.80017556 199.07010782 -130.61547182 197.13080772 -129.4375 195.1875 C-128.77621094 194.10855469 -128.11492187 193.02960938 -127.43359375 191.91796875 C-125.59624773 189.04100655 -125.59624773 189.04100655 -127 186 C-129.31 185.01 -131.62 184.02 -134 183 Z M-29 183 C-30.79540511 183.76501555 -30.79540511 183.76501555 -32.625 184.9375 C-33.73875 185.618125 -34.8525 186.29875 -36 187 C-35.34097701 190.57040303 -33.83770842 193.17732255 -31.9375 196.25 C-31.38964844 197.14203125 -30.84179688 198.0340625 -30.27734375 198.953125 C-29.85582031 199.62859375 -29.43429688 200.3040625 -29 201 C-25.54074837 199.7508258 -22.85306797 198.32472205 -20 196 C-21.11852219 194.01716521 -22.24501325 192.03882377 -23.375 190.0625 C-24.00148437 188.96035156 -24.62796875 187.85820312 -25.2734375 186.72265625 C-26.71898614 183.92556953 -26.71898614 183.92556953 -29 183 Z M-86 198 C-86 203.28 -86 208.56 -86 214 C-82.7 214 -79.4 214 -76 214 C-76 208.72 -76 203.44 -76 198 C-79.3 198 -82.6 198 -86 198 Z " fill="#FFFFFF" transform="translate(209,28)"/>
</svg>
